<mxfile host="app.diagrams.net" modified="2024-01-14T16:36:25.973Z" agent="Mozilla/5.0 (Windows NT 10.0; Win64; x64) AppleWebKit/537.36 (KHTML, like Gecko) Chrome/120.0.0.0 Safari/537.36" etag="YDuALifBbZKeOM7z0UpH" version="22.1.18" type="google">
  <diagram name="페이지-1" id="cFxwkXeeFtYfiVxIqS92">
    <mxGraphModel grid="0" page="1" gridSize="10" guides="1" tooltips="1" connect="1" arrows="1" fold="1" pageScale="1" pageWidth="827" pageHeight="1169" background="#d07b7c" math="0" shadow="0">
      <root>
        <mxCell id="0" />
        <mxCell id="1" parent="0" />
        <mxCell id="rnNnpWltgSV_yFe5c3ax-58" style="edgeStyle=orthogonalEdgeStyle;rounded=0;orthogonalLoop=1;jettySize=auto;html=1;exitX=1;exitY=0.25;exitDx=0;exitDy=0;entryX=0.5;entryY=0;entryDx=0;entryDy=0;" edge="1" parent="1" source="rnNnpWltgSV_yFe5c3ax-47" target="rnNnpWltgSV_yFe5c3ax-57">
          <mxGeometry relative="1" as="geometry">
            <mxPoint x="431" y="690" as="targetPoint" />
          </mxGeometry>
        </mxCell>
        <mxCell id="rnNnpWltgSV_yFe5c3ax-47" value="" style="rounded=0;whiteSpace=wrap;html=1;fillColor=#E1F2FF;strokeColor=#23445d;" vertex="1" parent="1">
          <mxGeometry x="317" y="646" width="94" height="101" as="geometry" />
        </mxCell>
        <mxCell id="RxJvrk7KRXvDSrtYazEQ-1" value="" style="shape=cube;whiteSpace=wrap;html=1;boundedLbl=1;backgroundOutline=1;darkOpacity=0.05;darkOpacity2=0.1;size=16;fillColor=#9CB3FF;strokeColor=#36393d;fillStyle=auto;" vertex="1" parent="1">
          <mxGeometry x="53" y="366" width="81" height="79" as="geometry" />
        </mxCell>
        <mxCell id="RxJvrk7KRXvDSrtYazEQ-2" value="" style="shape=cube;whiteSpace=wrap;html=1;boundedLbl=1;backgroundOutline=1;darkOpacity=0.05;darkOpacity2=0.1;size=34;fillColor=#597AFF;strokeColor=#36393d;fillStyle=auto;" vertex="1" parent="1">
          <mxGeometry x="153" y="366" width="81" height="79" as="geometry" />
        </mxCell>
        <mxCell id="RxJvrk7KRXvDSrtYazEQ-3" value="" style="shape=cube;whiteSpace=wrap;html=1;boundedLbl=1;backgroundOutline=1;darkOpacity=0.05;darkOpacity2=0.1;size=54;fillColor=#3D98FF;strokeColor=#36393d;fillStyle=auto;" vertex="1" parent="1">
          <mxGeometry x="253" y="366" width="81" height="79" as="geometry" />
        </mxCell>
        <mxCell id="RxJvrk7KRXvDSrtYazEQ-4" value="" style="shape=cube;whiteSpace=wrap;html=1;boundedLbl=1;backgroundOutline=1;darkOpacity=0.05;darkOpacity2=0.1;size=70;fillColor=#8AA5FF;strokeColor=#36393d;fillStyle=auto;" vertex="1" parent="1">
          <mxGeometry x="353" y="366" width="81" height="79" as="geometry" />
        </mxCell>
        <mxCell id="RxJvrk7KRXvDSrtYazEQ-35" value="" style="shape=cube;whiteSpace=wrap;html=1;boundedLbl=1;backgroundOutline=1;darkOpacity=0.05;darkOpacity2=0.1;size=16;fillColor=#ffcccc;strokeColor=#36393d;fillStyle=auto;" vertex="1" parent="1">
          <mxGeometry x="72" y="485" width="81" height="79" as="geometry" />
        </mxCell>
        <mxCell id="RxJvrk7KRXvDSrtYazEQ-36" value="" style="shape=cube;whiteSpace=wrap;html=1;boundedLbl=1;backgroundOutline=1;darkOpacity=0.05;darkOpacity2=0.1;size=34;fillColor=#ea8686;strokeColor=#36393d;fillStyle=auto;" vertex="1" parent="1">
          <mxGeometry x="172" y="485" width="81" height="79" as="geometry" />
        </mxCell>
        <mxCell id="RxJvrk7KRXvDSrtYazEQ-37" value="" style="shape=cube;whiteSpace=wrap;html=1;boundedLbl=1;backgroundOutline=1;darkOpacity=0.05;darkOpacity2=0.1;size=54;fillColor=#e1667e;strokeColor=#36393d;fillStyle=auto;" vertex="1" parent="1">
          <mxGeometry x="272" y="485" width="81" height="79" as="geometry" />
        </mxCell>
        <mxCell id="RxJvrk7KRXvDSrtYazEQ-38" value="" style="shape=cube;whiteSpace=wrap;html=1;boundedLbl=1;backgroundOutline=1;darkOpacity=0.05;darkOpacity2=0.1;size=70;fillColor=#f28c8c;strokeColor=#36393d;fillStyle=auto;" vertex="1" parent="1">
          <mxGeometry x="372" y="485" width="81" height="79" as="geometry" />
        </mxCell>
        <mxCell id="RxJvrk7KRXvDSrtYazEQ-44" value="" style="shape=cube;whiteSpace=wrap;html=1;boundedLbl=1;backgroundOutline=1;darkOpacity=0.05;darkOpacity2=0.1;size=9;gradientColor=default;gradientDirection=radial;" vertex="1" parent="1">
          <mxGeometry x="157" y="244" width="120" height="80" as="geometry" />
        </mxCell>
        <mxCell id="RxJvrk7KRXvDSrtYazEQ-45" value="" style="shape=cube;whiteSpace=wrap;html=1;boundedLbl=1;backgroundOutline=1;darkOpacity=0.05;darkOpacity2=0.1;size=70;fillColor=#8AA5FF;strokeColor=#36393d;fillStyle=auto;gradientColor=#d97e7e;" vertex="1" parent="1">
          <mxGeometry x="469" y="422" width="81" height="79" as="geometry" />
        </mxCell>
        <mxCell id="rnNnpWltgSV_yFe5c3ax-6" value="" style="rounded=0;whiteSpace=wrap;html=1;fillColor=#E1F2FF;strokeColor=#23445d;" vertex="1" parent="1">
          <mxGeometry x="141" y="662" width="94" height="101" as="geometry" />
        </mxCell>
        <mxCell id="rnNnpWltgSV_yFe5c3ax-3" value="" style="endArrow=classic;html=1;rounded=0;" edge="1" parent="1">
          <mxGeometry width="50" height="50" relative="1" as="geometry">
            <mxPoint x="109" y="713.66" as="sourcePoint" />
            <mxPoint x="157" y="713.66" as="targetPoint" />
          </mxGeometry>
        </mxCell>
        <mxCell id="rnNnpWltgSV_yFe5c3ax-7" value="&lt;b&gt;K Blocks&lt;/b&gt;" style="text;html=1;align=center;verticalAlign=middle;resizable=0;points=[];autosize=1;strokeColor=none;fillColor=none;" vertex="1" parent="1">
          <mxGeometry x="137" y="656" width="69" height="26" as="geometry" />
        </mxCell>
        <mxCell id="rnNnpWltgSV_yFe5c3ax-10" value="" style="rounded=0;whiteSpace=wrap;html=1;imageHeight=24;fillColor=#E1F2FF;" vertex="1" parent="1">
          <mxGeometry x="156" y="677.75" width="50" height="60" as="geometry" />
        </mxCell>
        <mxCell id="rnNnpWltgSV_yFe5c3ax-11" value="" style="rounded=0;whiteSpace=wrap;html=1;imageHeight=24;fillColor=#E1F2FF;" vertex="1" parent="1">
          <mxGeometry x="161" y="682" width="50" height="60" as="geometry" />
        </mxCell>
        <mxCell id="rnNnpWltgSV_yFe5c3ax-12" value="" style="rounded=0;whiteSpace=wrap;html=1;imageHeight=24;fillColor=#E1F2FF;" vertex="1" parent="1">
          <mxGeometry x="166" y="687" width="50" height="60" as="geometry" />
        </mxCell>
        <mxCell id="rnNnpWltgSV_yFe5c3ax-13" value="" style="rounded=0;whiteSpace=wrap;html=1;imageHeight=24;fillColor=#E1F2FF;" vertex="1" parent="1">
          <mxGeometry x="171" y="692" width="50" height="60" as="geometry" />
        </mxCell>
        <mxCell id="rnNnpWltgSV_yFe5c3ax-14" value="" style="rounded=0;whiteSpace=wrap;html=1;imageHeight=24;fillColor=#E1F2FF;" vertex="1" parent="1">
          <mxGeometry x="175" y="696" width="50" height="60" as="geometry" />
        </mxCell>
        <mxCell id="rnNnpWltgSV_yFe5c3ax-15" value="&lt;b&gt;3x3d&lt;br&gt;Conv&lt;/b&gt;" style="rounded=0;whiteSpace=wrap;html=1;" vertex="1" parent="1">
          <mxGeometry x="178.62" y="698" width="42" height="31.5" as="geometry" />
        </mxCell>
        <mxCell id="rnNnpWltgSV_yFe5c3ax-16" value="&lt;b&gt;BN&lt;/b&gt;" style="rounded=0;whiteSpace=wrap;html=1;" vertex="1" parent="1">
          <mxGeometry x="178.87" y="731" width="42" height="19" as="geometry" />
        </mxCell>
        <mxCell id="rnNnpWltgSV_yFe5c3ax-17" value="" style="endArrow=classic;html=1;rounded=0;" edge="1" parent="1">
          <mxGeometry width="50" height="50" relative="1" as="geometry">
            <mxPoint x="225" y="713.55" as="sourcePoint" />
            <mxPoint x="247" y="714" as="targetPoint" />
          </mxGeometry>
        </mxCell>
        <mxCell id="rnNnpWltgSV_yFe5c3ax-38" style="edgeStyle=orthogonalEdgeStyle;rounded=0;orthogonalLoop=1;jettySize=auto;html=1;exitX=1;exitY=0.5;exitDx=0;exitDy=0;entryX=0;entryY=0.5;entryDx=0;entryDy=0;endArrow=none;endFill=0;" edge="1" parent="1" source="rnNnpWltgSV_yFe5c3ax-18" target="rnNnpWltgSV_yFe5c3ax-37">
          <mxGeometry relative="1" as="geometry" />
        </mxCell>
        <mxCell id="rnNnpWltgSV_yFe5c3ax-18" value="&lt;font style=&quot;font-size: 19px;&quot;&gt;+&lt;/font&gt;" style="ellipse;whiteSpace=wrap;html=1;" vertex="1" parent="1">
          <mxGeometry x="246" y="701.25" width="25" height="25" as="geometry" />
        </mxCell>
        <mxCell id="rnNnpWltgSV_yFe5c3ax-25" value="" style="endArrow=none;html=1;rounded=0;" edge="1" parent="1">
          <mxGeometry width="50" height="50" relative="1" as="geometry">
            <mxPoint x="136" y="649" as="sourcePoint" />
            <mxPoint x="136" y="774" as="targetPoint" />
          </mxGeometry>
        </mxCell>
        <mxCell id="rnNnpWltgSV_yFe5c3ax-33" style="edgeStyle=orthogonalEdgeStyle;rounded=0;orthogonalLoop=1;jettySize=auto;html=1;exitX=1;exitY=0.5;exitDx=0;exitDy=0;entryX=0;entryY=0.5;entryDx=0;entryDy=0;endArrow=none;endFill=0;" edge="1" parent="1" source="rnNnpWltgSV_yFe5c3ax-26" target="rnNnpWltgSV_yFe5c3ax-30">
          <mxGeometry relative="1" as="geometry" />
        </mxCell>
        <mxCell id="rnNnpWltgSV_yFe5c3ax-26" value="&lt;p style=&quot;line-height: 100%; font-size: 11px;&quot;&gt;&lt;b&gt;3x3d&lt;br&gt;Conv&lt;/b&gt;&lt;/p&gt;" style="rounded=0;whiteSpace=wrap;html=1;" vertex="1" parent="1">
          <mxGeometry x="161" y="638" width="36" height="22" as="geometry" />
        </mxCell>
        <mxCell id="rnNnpWltgSV_yFe5c3ax-34" style="edgeStyle=orthogonalEdgeStyle;rounded=0;orthogonalLoop=1;jettySize=auto;html=1;exitX=1;exitY=0.5;exitDx=0;exitDy=0;" edge="1" parent="1" source="rnNnpWltgSV_yFe5c3ax-30" target="rnNnpWltgSV_yFe5c3ax-18">
          <mxGeometry relative="1" as="geometry" />
        </mxCell>
        <mxCell id="rnNnpWltgSV_yFe5c3ax-30" value="&lt;b&gt;&lt;font style=&quot;font-size: 11px;&quot;&gt;BN&lt;/font&gt;&lt;/b&gt;" style="rounded=0;whiteSpace=wrap;html=1;" vertex="1" parent="1">
          <mxGeometry x="202" y="638" width="18" height="22" as="geometry" />
        </mxCell>
        <mxCell id="rnNnpWltgSV_yFe5c3ax-31" value="" style="endArrow=classic;html=1;rounded=0;entryX=0;entryY=0.5;entryDx=0;entryDy=0;" edge="1" parent="1" target="rnNnpWltgSV_yFe5c3ax-26">
          <mxGeometry width="50" height="50" relative="1" as="geometry">
            <mxPoint x="136" y="649" as="sourcePoint" />
            <mxPoint x="225" y="614" as="targetPoint" />
          </mxGeometry>
        </mxCell>
        <mxCell id="rnNnpWltgSV_yFe5c3ax-32" value="" style="endArrow=classic;html=1;rounded=0;entryX=0;entryY=0.5;entryDx=0;entryDy=0;" edge="1" parent="1" target="rnNnpWltgSV_yFe5c3ax-35">
          <mxGeometry width="50" height="50" relative="1" as="geometry">
            <mxPoint x="136" y="774" as="sourcePoint" />
            <mxPoint x="161" y="770" as="targetPoint" />
          </mxGeometry>
        </mxCell>
        <mxCell id="rnNnpWltgSV_yFe5c3ax-36" style="edgeStyle=orthogonalEdgeStyle;rounded=0;orthogonalLoop=1;jettySize=auto;html=1;exitX=1;exitY=0.5;exitDx=0;exitDy=0;entryX=0.5;entryY=1;entryDx=0;entryDy=0;" edge="1" parent="1" source="rnNnpWltgSV_yFe5c3ax-35" target="rnNnpWltgSV_yFe5c3ax-18">
          <mxGeometry relative="1" as="geometry" />
        </mxCell>
        <mxCell id="rnNnpWltgSV_yFe5c3ax-35" value="&lt;b&gt;&lt;font style=&quot;font-size: 11px;&quot;&gt;BN&lt;/font&gt;&lt;/b&gt;" style="rounded=0;whiteSpace=wrap;html=1;" vertex="1" parent="1">
          <mxGeometry x="182" y="766" width="25" height="17" as="geometry" />
        </mxCell>
        <mxCell id="rnNnpWltgSV_yFe5c3ax-51" style="edgeStyle=orthogonalEdgeStyle;rounded=0;orthogonalLoop=1;jettySize=auto;html=1;exitX=1;exitY=0.5;exitDx=0;exitDy=0;" edge="1" parent="1" source="rnNnpWltgSV_yFe5c3ax-37">
          <mxGeometry relative="1" as="geometry">
            <mxPoint x="309.9770255253233" y="713.8275862068966" as="targetPoint" />
          </mxGeometry>
        </mxCell>
        <mxCell id="rnNnpWltgSV_yFe5c3ax-37" value="&lt;p style=&quot;line-height: 100%;&quot;&gt;&lt;b style=&quot;&quot;&gt;&lt;font style=&quot;font-size: 10px;&quot;&gt;Act.&lt;/font&gt;&lt;/b&gt;&lt;/p&gt;" style="rounded=0;whiteSpace=wrap;html=1;" vertex="1" parent="1">
          <mxGeometry x="278" y="707.25" width="21" height="13" as="geometry" />
        </mxCell>
        <mxCell id="rnNnpWltgSV_yFe5c3ax-39" value="" style="rounded=0;whiteSpace=wrap;html=1;imageHeight=24;fillColor=#E1F2FF;" vertex="1" parent="1">
          <mxGeometry x="331" y="664" width="50" height="60" as="geometry" />
        </mxCell>
        <mxCell id="rnNnpWltgSV_yFe5c3ax-40" value="" style="rounded=0;whiteSpace=wrap;html=1;imageHeight=24;fillColor=#E1F2FF;" vertex="1" parent="1">
          <mxGeometry x="336" y="668" width="50" height="60" as="geometry" />
        </mxCell>
        <mxCell id="rnNnpWltgSV_yFe5c3ax-41" value="" style="rounded=0;whiteSpace=wrap;html=1;imageHeight=24;fillColor=#E1F2FF;" vertex="1" parent="1">
          <mxGeometry x="341" y="673" width="50" height="60" as="geometry" />
        </mxCell>
        <mxCell id="rnNnpWltgSV_yFe5c3ax-42" value="" style="rounded=0;whiteSpace=wrap;html=1;imageHeight=24;fillColor=#E1F2FF;" vertex="1" parent="1">
          <mxGeometry x="346" y="678" width="50" height="60" as="geometry" />
        </mxCell>
        <mxCell id="rnNnpWltgSV_yFe5c3ax-43" value="" style="rounded=0;whiteSpace=wrap;html=1;imageHeight=24;fillColor=#E1F2FF;" vertex="1" parent="1">
          <mxGeometry x="350" y="682" width="50" height="60" as="geometry" />
        </mxCell>
        <mxCell id="rnNnpWltgSV_yFe5c3ax-44" value="&lt;b&gt;3x3d&lt;br&gt;Conv&lt;/b&gt;" style="rounded=0;whiteSpace=wrap;html=1;" vertex="1" parent="1">
          <mxGeometry x="353.62" y="684" width="42" height="31.5" as="geometry" />
        </mxCell>
        <mxCell id="rnNnpWltgSV_yFe5c3ax-45" value="&lt;b&gt;BN&lt;/b&gt;" style="rounded=0;whiteSpace=wrap;html=1;" vertex="1" parent="1">
          <mxGeometry x="353.87" y="717" width="42" height="19" as="geometry" />
        </mxCell>
        <mxCell id="rnNnpWltgSV_yFe5c3ax-48" value="&lt;b&gt;K Blocks&lt;/b&gt;" style="text;html=1;align=center;verticalAlign=middle;resizable=0;points=[];autosize=1;strokeColor=none;fillColor=none;" vertex="1" parent="1">
          <mxGeometry x="312" y="642" width="69" height="26" as="geometry" />
        </mxCell>
        <mxCell id="rnNnpWltgSV_yFe5c3ax-49" value="" style="endArrow=none;html=1;rounded=0;" edge="1" parent="1">
          <mxGeometry width="50" height="50" relative="1" as="geometry">
            <mxPoint x="310" y="672" as="sourcePoint" />
            <mxPoint x="310" y="765" as="targetPoint" />
          </mxGeometry>
        </mxCell>
        <mxCell id="rnNnpWltgSV_yFe5c3ax-52" style="edgeStyle=orthogonalEdgeStyle;rounded=0;orthogonalLoop=1;jettySize=auto;html=1;exitX=0;exitY=0.25;exitDx=0;exitDy=0;endArrow=none;endFill=0;entryX=-0.036;entryY=1.134;entryDx=0;entryDy=0;entryPerimeter=0;" edge="1" parent="1" source="rnNnpWltgSV_yFe5c3ax-47" target="rnNnpWltgSV_yFe5c3ax-48">
          <mxGeometry relative="1" as="geometry">
            <mxPoint x="310" y="644" as="targetPoint" />
          </mxGeometry>
        </mxCell>
        <mxCell id="rnNnpWltgSV_yFe5c3ax-61" style="edgeStyle=orthogonalEdgeStyle;rounded=0;orthogonalLoop=1;jettySize=auto;html=1;exitX=1;exitY=0.5;exitDx=0;exitDy=0;entryX=0.5;entryY=1;entryDx=0;entryDy=0;" edge="1" parent="1" source="rnNnpWltgSV_yFe5c3ax-53" target="rnNnpWltgSV_yFe5c3ax-57">
          <mxGeometry relative="1" as="geometry" />
        </mxCell>
        <mxCell id="rnNnpWltgSV_yFe5c3ax-53" value="&lt;b&gt;&lt;font style=&quot;font-size: 11px;&quot;&gt;BN&lt;/font&gt;&lt;/b&gt;" style="rounded=0;whiteSpace=wrap;html=1;" vertex="1" parent="1">
          <mxGeometry x="353.87" y="756" width="25.13" height="18" as="geometry" />
        </mxCell>
        <mxCell id="rnNnpWltgSV_yFe5c3ax-55" value="" style="endArrow=classic;html=1;rounded=0;entryX=0;entryY=0.5;entryDx=0;entryDy=0;" edge="1" parent="1" target="rnNnpWltgSV_yFe5c3ax-53">
          <mxGeometry width="50" height="50" relative="1" as="geometry">
            <mxPoint x="310" y="765" as="sourcePoint" />
            <mxPoint x="329" y="766" as="targetPoint" />
          </mxGeometry>
        </mxCell>
        <mxCell id="rnNnpWltgSV_yFe5c3ax-63" style="edgeStyle=orthogonalEdgeStyle;rounded=0;orthogonalLoop=1;jettySize=auto;html=1;exitX=1;exitY=0.5;exitDx=0;exitDy=0;entryX=0;entryY=0.5;entryDx=0;entryDy=0;endArrow=none;endFill=0;" edge="1" parent="1" source="rnNnpWltgSV_yFe5c3ax-57" target="rnNnpWltgSV_yFe5c3ax-62">
          <mxGeometry relative="1" as="geometry" />
        </mxCell>
        <mxCell id="rnNnpWltgSV_yFe5c3ax-57" value="&lt;font style=&quot;font-size: 19px;&quot;&gt;+&lt;/font&gt;" style="ellipse;whiteSpace=wrap;html=1;" vertex="1" parent="1">
          <mxGeometry x="421" y="701.25" width="25" height="25" as="geometry" />
        </mxCell>
        <mxCell id="rnNnpWltgSV_yFe5c3ax-65" style="edgeStyle=orthogonalEdgeStyle;rounded=0;orthogonalLoop=1;jettySize=auto;html=1;exitX=1;exitY=0.5;exitDx=0;exitDy=0;" edge="1" parent="1" source="rnNnpWltgSV_yFe5c3ax-62">
          <mxGeometry relative="1" as="geometry">
            <mxPoint x="483.19047619047615" y="713.7142857142858" as="targetPoint" />
          </mxGeometry>
        </mxCell>
        <mxCell id="rnNnpWltgSV_yFe5c3ax-62" value="&lt;p style=&quot;line-height: 100%;&quot;&gt;&lt;b style=&quot;&quot;&gt;&lt;font style=&quot;font-size: 10px;&quot;&gt;Act.&lt;/font&gt;&lt;/b&gt;&lt;/p&gt;" style="rounded=0;whiteSpace=wrap;html=1;" vertex="1" parent="1">
          <mxGeometry x="451" y="707.25" width="21" height="13" as="geometry" />
        </mxCell>
        <mxCell id="281pxm4yxtadyugSzaWR-1" value="Training" style="text;html=1;align=center;verticalAlign=middle;resizable=0;points=[];autosize=1;strokeColor=none;fillColor=none;rotation=-90;" vertex="1" parent="1">
          <mxGeometry x="72" y="700.75" width="61" height="26" as="geometry" />
        </mxCell>
      </root>
    </mxGraphModel>
  </diagram>
</mxfile>
